<?xml version="1.0" standalone="no"?>
<!DOCTYPE svg PUBLIC "-//W3C//DTD SVG 20010904//EN"
 "http://www.w3.org/TR/2001/REC-SVG-20010904/DTD/svg10.dtd">
<svg version="1.0" xmlns="http://www.w3.org/2000/svg"
 width="1200.000000pt" height="1200.000000pt" viewBox="0 0 1200.000000 1200.000000"
 preserveAspectRatio="xMidYMid meet">
<metadata>
Created by potrace 1.11, written by Peter Selinger 2001-2013
</metadata>
<g transform="translate(0.000000,1200.000000) scale(0.100000,-0.100000)"
fill="#000000" stroke="none">
<path d="M4290 10376 c-72 -20 -127 -53 -181 -108 -45 -46 -222 -397 -2077
-4105 l-2027 -4055 0 -97 c0 -86 4 -103 31 -161 55 -118 143 -193 259 -223 54
-13 662 -15 5700 -15 3713 -1 5656 3 5685 9 123 27 229 112 284 228 28 60 31
75 31 163 l0 97 -1129 2258 c-621 1242 -1307 2615 -1525 3051 -408 817 -420
839 -511 904 -104 75 -270 89 -391 32 -135 -64 -93 10 -802 -1409 -352 -702
-641 -1274 -643 -1272 -3 3 -515 1026 -1138 2274 -1037 2075 -1138 2274 -1184
2321 -102 103 -249 145 -382 108z m779 -2631 c370 -740 672 -1347 670 -1349
-2 -2 -17 -6 -34 -9 -64 -11 -261 -47 -285 -52 -14 -3 -41 -7 -60 -11 -19 -3
-55 -9 -80 -14 -25 -5 -61 -12 -80 -14 -19 -3 -46 -8 -60 -11 -14 -3 -63 -12
-110 -20 -47 -8 -96 -17 -110 -20 -31 -6 -34 -4 -95 70 -27 33 -54 65 -60 71
-5 6 -19 22 -30 35 -19 22 -250 293 -299 349 -12 14 -59 69 -105 123 -45 53
-87 97 -91 97 -5 0 -46 -13 -92 -29 -192 -66 -980 -323 -983 -319 -5 5 1215
2448 1223 2448 4 0 310 -606 681 -1345z m3940 -1446 l401 -800 -226 -282
c-124 -155 -229 -283 -234 -285 -5 -2 -36 34 -70 79 -34 45 -132 174 -218 288
-85 113 -156 207 -157 208 -1 3 -286 108 -472 175 -62 22 -113 44 -113 48 0
10 679 1370 685 1370 2 0 184 -360 404 -801z"/>
</g>
</svg>
